HIERARCHY
ROOT Hips
{
    OFFSET 0.000000 0.000000 0.000000
    CHANNELS 6 Xposition Yposition Zposition Zrotation Xrotation Yrotation
    JOINT Spine
    {
        OFFSET -0.000000 14.517291 0.000000
        CHANNELS 3 Zrotation Xrotation Yrotation
        JOINT Spine1
        {
            OFFSET -0.000000 37.558300 0.000000
            CHANNELS 3 Zrotation Xrotation Yrotation
            JOINT Neck
            {
                OFFSET -0.000000 37.404057 3.400369
                CHANNELS 3 Zrotation Xrotation Yrotation
                JOINT Head
                {
                    OFFSET -0.000000 24.785618 -3.540803
                    CHANNELS 3 Zrotation Xrotation Yrotation
                    End Site
                    {
                        OFFSET -0.000000 35.408028 0.000000
                    }
                }
            }
            JOINT LeftShoulder
            {
                OFFSET 6.992933 33.973492 -0.192664
                CHANNELS 3 Zrotation Xrotation Yrotation
                JOINT LeftArm
                {
                    OFFSET 21.527611 0.000000 0.000000
                    CHANNELS 3 Zrotation Xrotation Yrotation
                    JOINT LeftForeArm
                    {
                        OFFSET 56.353916 0.000000 0.000000
                        CHANNELS 3 Zrotation Xrotation Yrotation
                        JOINT LeftHand
                        {
                            OFFSET 47.774071 0.000000 0.000000
                            CHANNELS 3 Zrotation Xrotation Yrotation
                            End Site
                            {
                                OFFSET 26.556021 0.000000 0.000000
                            }
                        }
                    }
                }
            }
            JOINT RightShoulder
            {
                OFFSET -7.065357 33.973492 -0.192664
                CHANNELS 3 Zrotation Xrotation Yrotation
                JOINT RightArm
                {
                    OFFSET -21.527611 0.000000 0.000000
                    CHANNELS 3 Zrotation Xrotation Yrotation
                    JOINT RightForeArm
                    {
                        OFFSET -56.353916 0.000000 0.000000
                        CHANNELS 3 Zrotation Xrotation Yrotation
                        JOINT RightHand
                        {
                            OFFSET -47.774071 0.000000 0.000000
                            CHANNELS 3 Zrotation Xrotation Yrotation
                            End Site
                            {
                                OFFSET -26.556021 0.000000 0.000000
                            }
                        }
                    }
                }
            }
        }
    }
    JOINT LeftUpLeg
    {
        OFFSET 17.704014 0.000000 0.000000
        CHANNELS 3 Zrotation Xrotation Yrotation
        JOINT LeftLeg
        {
            OFFSET -0.000000 -81.181816 0.000000
            CHANNELS 3 Zrotation Xrotation Yrotation
            JOINT LeftFoot
            {
                OFFSET -0.000000 -62.821102 0.000000
                CHANNELS 3 Zrotation Xrotation Yrotation
                JOINT LeftToeBase
                {
                    OFFSET -0.000000 -11.507608 26.556021
                    CHANNELS 3 Zrotation Xrotation Yrotation
                    End Site
                    {
                        OFFSET -0.000000 0.000000 7.081605
                    }
                }
            }
        }
    }
    JOINT RightUpLeg
    {
        OFFSET -17.704014 0.000000 0.000000
        CHANNELS 3 Zrotation Xrotation Yrotation
        JOINT RightLeg
        {
            OFFSET -0.000000 -81.181816 0.000000
            CHANNELS 3 Zrotation Xrotation Yrotation
            JOINT RightFoot
            {
                OFFSET -0.000000 -62.821102 0.000000
                CHANNELS 3 Zrotation Xrotation Yrotation
                JOINT RightToeBase
                {
                    OFFSET -0.000000 -11.507608 26.556021
                    CHANNELS 3 Zrotation Xrotation Yrotation
                    End Site
                    {
                        OFFSET -0.000000 0.000000 7.081605
                    }
                }
            }
        }
    }
}
MOTION
Frames:    5
Frame Time:    0.008333
-9.346275    157.823273    -93.691307    -3.020573    -5.486098    46.227222    0.942287    -3.386570    1.727888    0.792551    4.532557    0.528767    -8.863200    4.571217    -21.386797    21.043066    1.667515    -18.751446    13.158403    2.307305    -12.028951    -29.120331    33.763927    21.719999    -24.729897    30.694937    -105.489639    10.831807    -2.985211    -13.355069    -23.029852    -6.942266    -6.351763    20.415302    -25.488750    51.096764    -6.021225    1.080922    20.905737    -8.249267    -0.339211    34.067505    22.345730    0.374935    -2.700890    -10.204722    25.167017    -19.333378    -2.500674    -24.503336    42.097866    0.000000    0.000000    0.000000    -10.755243    -13.723601    -20.726145    4.351190    13.317475    -18.749439    6.186729    11.315928    -9.208742    0.000000    0.000000    0.000000    
-9.332083    157.822464    -93.688583    -3.030350    -5.493268    46.234787    0.947290    -3.372710    1.707099    0.779438    4.515261    0.522564    -8.845999    4.516534    -21.383301    21.025209    1.727684    -18.758465    13.161287    2.322650    -12.027932    -29.205198    33.735882    21.728651    -24.654379    30.648262    -105.617043    10.815782    -3.001313    -13.295246    -23.023453    -6.945137    -6.344762    20.456707    -25.521294    51.117157    -5.998527    1.104089    20.889839    -8.245206    -0.319778    34.066326    22.360312    0.372057    -2.709265    -10.211675    25.174971    -19.361757    -2.479854    -24.515989    42.129734    0.000000    0.000000    0.000000    -10.741647    -13.707015    -20.732422    4.346959    13.261346    -18.798771    6.177144    11.382872    -9.181567    0.000000    0.000000    0.000000    
-9.319727    157.823425    -93.685532    -3.036404    -5.498547    46.238163    0.939955    -3.357630    1.687952    0.774842    4.496164    0.516600    -8.835914    4.500182    -21.371500    21.039272    1.739053    -18.746141    13.151067    2.330100    -12.032682    -29.282547    33.725876    21.711643    -24.585447    30.602007    -105.752518    10.837724    -3.032746    -13.199172    -23.013195    -6.957640    -6.349556    20.462276    -25.508236    51.131351    -5.983247    1.090123    20.880978    -8.254234    -0.339503    34.062054    22.368509    0.378666    -2.721843    -10.217431    25.160789    -19.340096    -2.481035    -24.512302    42.116192    0.000000    0.000000    0.000000    -10.737370    -13.696890    -20.714535    4.357467    13.252017    -18.789959    6.165773    11.372554    -9.205069    0.000000    0.000000    0.000000    
-9.306102    157.822449    -93.686691    -3.039214    -5.506209    46.229092    0.939133    -3.343605    1.678397    0.760800    4.494665    0.514076    -8.803041    4.449735    -21.365494    21.013847    1.763900    -18.747053    13.145824    2.319102    -12.049520    -29.394371    33.728683    21.696621    -24.504452    30.540670    -105.898964    10.851311    -3.070648    -13.116262    -22.998545    -6.966705    -6.362593    20.476011    -25.516607    51.162369    -5.963120    1.088749    20.862577    -8.249993    -0.343866    34.056808    22.377314    0.400716    -2.736760    -10.228388    25.138983    -19.330114    -2.482471    -24.515469    42.110806    0.000000    0.000000    0.000000    -10.733964    -13.692060    -20.677486    4.368975    13.255120    -18.805552    6.179441    11.366618    -9.218883    0.000000    0.000000    0.000000    
-9.287694    157.821167    -93.682373    -3.040437    -5.510387    46.222122    0.933555    -3.332853    1.659667    0.746273    4.487297    0.508606    -8.768616    4.385804    -21.349497    20.970057    1.811415    -18.742889    13.119178    2.306508    -12.070835    -29.541113    33.757961    21.709831    -24.407190    30.444510    -106.078812    10.855652    -3.141297    -13.001044    -22.988234    -6.983965    -6.365925    20.484594    -25.489298    51.189240    -5.959733    1.065543    20.840712    -8.240302    -0.365842    34.055988    22.377439    0.416598    -2.737652    -10.226995    25.132488    -19.343060    -2.474586    -24.528036    42.126358    0.000000    0.000000    0.000000    -10.726849    -13.693273    -20.683405    4.353280    13.260960    -18.828571    6.179850    11.375863    -9.191106    0.000000    0.000000    0.000000    
